<mxfile host="Electron" modified="2024-04-03T02:05:37.274Z" agent="Mozilla/5.0 (Macintosh; Intel Mac OS X 10_15_7) AppleWebKit/537.36 (KHTML, like Gecko) draw.io/24.1.0 Chrome/120.0.6099.109 Electron/28.1.0 Safari/537.36" etag="-4ZUg45H0KML5M7x7eR_" version="24.1.0" type="device">
  <diagram name="Dataflow with cache " id="13e1069c-82ec-6db2-03f1-153e76fe0fe0">
    <mxGraphModel dx="740" dy="854" grid="1" gridSize="10" guides="1" tooltips="1" connect="1" arrows="1" fold="1" page="1" pageScale="1" pageWidth="1100" pageHeight="850" background="none" math="0" shadow="0">
      <root>
        <mxCell id="0" />
        <mxCell id="1" parent="0" />
        <mxCell id="WZfhl5HpBi6mfvKsEDxa-1" value="Database" style="shape=cylinder3;whiteSpace=wrap;html=1;boundedLbl=1;backgroundOutline=1;size=15;" vertex="1" parent="1">
          <mxGeometry x="210" y="210" width="60" height="80" as="geometry" />
        </mxCell>
        <mxCell id="WZfhl5HpBi6mfvKsEDxa-2" value="Controller" style="rounded=0;whiteSpace=wrap;html=1;" vertex="1" parent="1">
          <mxGeometry x="180" y="560" width="120" height="60" as="geometry" />
        </mxCell>
        <mxCell id="WZfhl5HpBi6mfvKsEDxa-3" value="Cache" style="shape=cylinder3;whiteSpace=wrap;html=1;boundedLbl=1;backgroundOutline=1;size=15;" vertex="1" parent="1">
          <mxGeometry x="500" y="400" width="60" height="80" as="geometry" />
        </mxCell>
        <mxCell id="WZfhl5HpBi6mfvKsEDxa-4" value="Service" style="ellipse;whiteSpace=wrap;html=1;" vertex="1" parent="1">
          <mxGeometry x="180" y="400" width="120" height="80" as="geometry" />
        </mxCell>
        <mxCell id="WZfhl5HpBi6mfvKsEDxa-6" value="Client" style="sketch=0;aspect=fixed;pointerEvents=1;shadow=0;dashed=0;html=1;strokeColor=none;labelPosition=center;verticalLabelPosition=bottom;verticalAlign=top;align=center;fillColor=#00188D;shape=mxgraph.azure.computer" vertex="1" parent="1">
          <mxGeometry x="215" y="720" width="50" height="45" as="geometry" />
        </mxCell>
        <mxCell id="WZfhl5HpBi6mfvKsEDxa-14" value="" style="endArrow=classic;html=1;rounded=0;strokeColor=default;align=center;verticalAlign=middle;fontFamily=Helvetica;fontSize=11;fontColor=default;labelBackgroundColor=default;exitX=0.5;exitY=0;exitDx=0;exitDy=0;exitPerimeter=0;entryX=0.5;entryY=1;entryDx=0;entryDy=0;" edge="1" parent="1">
          <mxGeometry relative="1" as="geometry">
            <mxPoint x="239.5" y="720" as="sourcePoint" />
            <mxPoint x="239.5" y="620" as="targetPoint" />
          </mxGeometry>
        </mxCell>
        <mxCell id="WZfhl5HpBi6mfvKsEDxa-15" value="gửi yêu cầu" style="edgeLabel;resizable=0;html=1;;align=center;verticalAlign=middle;fontFamily=Helvetica;fontSize=11;fontColor=default;labelBackgroundColor=default;" connectable="0" vertex="1" parent="WZfhl5HpBi6mfvKsEDxa-14">
          <mxGeometry relative="1" as="geometry" />
        </mxCell>
        <mxCell id="WZfhl5HpBi6mfvKsEDxa-19" value="" style="endArrow=classic;html=1;rounded=0;strokeColor=default;align=center;verticalAlign=middle;fontFamily=Helvetica;fontSize=11;fontColor=default;labelBackgroundColor=default;exitX=0.5;exitY=0;exitDx=0;exitDy=0;entryX=0.5;entryY=1;entryDx=0;entryDy=0;" edge="1" parent="1" source="WZfhl5HpBi6mfvKsEDxa-2" target="WZfhl5HpBi6mfvKsEDxa-4">
          <mxGeometry relative="1" as="geometry">
            <mxPoint x="270" y="580" as="sourcePoint" />
            <mxPoint x="430" y="580" as="targetPoint" />
          </mxGeometry>
        </mxCell>
        <mxCell id="WZfhl5HpBi6mfvKsEDxa-20" value="chuyển tiếp data" style="edgeLabel;resizable=0;html=1;;align=center;verticalAlign=middle;fontFamily=Helvetica;fontSize=11;fontColor=default;labelBackgroundColor=default;" connectable="0" vertex="1" parent="WZfhl5HpBi6mfvKsEDxa-19">
          <mxGeometry relative="1" as="geometry" />
        </mxCell>
        <mxCell id="WZfhl5HpBi6mfvKsEDxa-22" value="" style="endArrow=classic;html=1;rounded=0;strokeColor=default;align=center;verticalAlign=middle;fontFamily=Helvetica;fontSize=11;fontColor=default;labelBackgroundColor=default;exitX=1;exitY=0.5;exitDx=0;exitDy=0;entryX=0;entryY=0.5;entryDx=0;entryDy=0;entryPerimeter=0;" edge="1" parent="1" source="WZfhl5HpBi6mfvKsEDxa-4" target="WZfhl5HpBi6mfvKsEDxa-3">
          <mxGeometry relative="1" as="geometry">
            <mxPoint x="270" y="580" as="sourcePoint" />
            <mxPoint x="430" y="580" as="targetPoint" />
          </mxGeometry>
        </mxCell>
        <mxCell id="WZfhl5HpBi6mfvKsEDxa-23" value="Kiểm tra dữ liệu&lt;br&gt;có được lưu trong&lt;br&gt;cache không." style="edgeLabel;resizable=0;html=1;;align=center;verticalAlign=middle;fontFamily=Helvetica;fontSize=11;fontColor=default;labelBackgroundColor=default;" connectable="0" vertex="1" parent="WZfhl5HpBi6mfvKsEDxa-22">
          <mxGeometry relative="1" as="geometry" />
        </mxCell>
        <mxCell id="WZfhl5HpBi6mfvKsEDxa-25" value="" style="endArrow=classic;html=1;rounded=0;strokeColor=default;align=center;verticalAlign=middle;fontFamily=Helvetica;fontSize=11;fontColor=default;labelBackgroundColor=default;exitX=0.5;exitY=1;exitDx=0;exitDy=0;exitPerimeter=0;entryX=1;entryY=0.5;entryDx=0;entryDy=0;" edge="1" parent="1" source="WZfhl5HpBi6mfvKsEDxa-3" target="WZfhl5HpBi6mfvKsEDxa-2">
          <mxGeometry relative="1" as="geometry">
            <mxPoint x="270" y="580" as="sourcePoint" />
            <mxPoint x="430" y="580" as="targetPoint" />
            <Array as="points">
              <mxPoint x="530" y="590" />
            </Array>
          </mxGeometry>
        </mxCell>
        <mxCell id="WZfhl5HpBi6mfvKsEDxa-26" value="Trả về dữ liệu trong cache" style="edgeLabel;resizable=0;html=1;;align=center;verticalAlign=middle;fontFamily=Helvetica;fontSize=11;fontColor=default;labelBackgroundColor=default;" connectable="0" vertex="1" parent="WZfhl5HpBi6mfvKsEDxa-25">
          <mxGeometry relative="1" as="geometry">
            <mxPoint x="-30" as="offset" />
          </mxGeometry>
        </mxCell>
        <mxCell id="WZfhl5HpBi6mfvKsEDxa-27" value="true" style="edgeLabel;resizable=0;html=1;;align=left;verticalAlign=bottom;fontFamily=Helvetica;fontSize=11;fontColor=default;labelBackgroundColor=default;" connectable="0" vertex="1" parent="WZfhl5HpBi6mfvKsEDxa-25">
          <mxGeometry x="-1" relative="1" as="geometry">
            <mxPoint y="20" as="offset" />
          </mxGeometry>
        </mxCell>
        <mxCell id="WZfhl5HpBi6mfvKsEDxa-29" value="" style="endArrow=classic;html=1;rounded=0;strokeColor=default;align=center;verticalAlign=middle;fontFamily=Helvetica;fontSize=11;fontColor=default;labelBackgroundColor=default;exitX=0.5;exitY=0;exitDx=0;exitDy=0;entryX=0.5;entryY=1;entryDx=0;entryDy=0;entryPerimeter=0;" edge="1" parent="1" source="WZfhl5HpBi6mfvKsEDxa-4" target="WZfhl5HpBi6mfvKsEDxa-1">
          <mxGeometry relative="1" as="geometry">
            <mxPoint x="270" y="580" as="sourcePoint" />
            <mxPoint x="250" y="340" as="targetPoint" />
          </mxGeometry>
        </mxCell>
        <mxCell id="WZfhl5HpBi6mfvKsEDxa-30" value="Kiểm tra&amp;nbsp;" style="edgeLabel;resizable=0;html=1;;align=center;verticalAlign=middle;fontFamily=Helvetica;fontSize=11;fontColor=default;labelBackgroundColor=default;" connectable="0" vertex="1" parent="WZfhl5HpBi6mfvKsEDxa-29">
          <mxGeometry relative="1" as="geometry" />
        </mxCell>
        <mxCell id="WZfhl5HpBi6mfvKsEDxa-32" value="" style="endArrow=classic;html=1;rounded=0;strokeColor=default;align=center;verticalAlign=middle;fontFamily=Helvetica;fontSize=11;fontColor=default;labelBackgroundColor=default;exitX=0.5;exitY=0;exitDx=0;exitDy=0;exitPerimeter=0;entryX=1;entryY=0;entryDx=0;entryDy=0;" edge="1" parent="1" source="WZfhl5HpBi6mfvKsEDxa-3" target="WZfhl5HpBi6mfvKsEDxa-4">
          <mxGeometry relative="1" as="geometry">
            <mxPoint x="270" y="580" as="sourcePoint" />
            <mxPoint x="430" y="580" as="targetPoint" />
            <Array as="points">
              <mxPoint x="530" y="320" />
              <mxPoint x="350" y="320" />
            </Array>
          </mxGeometry>
        </mxCell>
        <mxCell id="WZfhl5HpBi6mfvKsEDxa-33" value="Label" style="edgeLabel;resizable=0;html=1;;align=center;verticalAlign=middle;fontFamily=Helvetica;fontSize=11;fontColor=default;labelBackgroundColor=default;" connectable="0" vertex="1" parent="WZfhl5HpBi6mfvKsEDxa-32">
          <mxGeometry relative="1" as="geometry" />
        </mxCell>
        <mxCell id="WZfhl5HpBi6mfvKsEDxa-34" value="false" style="edgeLabel;resizable=0;html=1;;align=left;verticalAlign=bottom;fontFamily=Helvetica;fontSize=11;fontColor=default;labelBackgroundColor=default;" connectable="0" vertex="1" parent="WZfhl5HpBi6mfvKsEDxa-32">
          <mxGeometry x="-1" relative="1" as="geometry" />
        </mxCell>
        <mxCell id="WZfhl5HpBi6mfvKsEDxa-37" value="" style="endArrow=classic;html=1;rounded=0;strokeColor=default;align=center;verticalAlign=middle;fontFamily=Helvetica;fontSize=11;fontColor=default;labelBackgroundColor=default;exitX=0;exitY=0.5;exitDx=0;exitDy=0;exitPerimeter=0;entryX=0;entryY=0.5;entryDx=0;entryDy=0;" edge="1" parent="1" source="WZfhl5HpBi6mfvKsEDxa-1" target="WZfhl5HpBi6mfvKsEDxa-4">
          <mxGeometry relative="1" as="geometry">
            <mxPoint x="270" y="580" as="sourcePoint" />
            <mxPoint x="430" y="580" as="targetPoint" />
            <Array as="points">
              <mxPoint x="120" y="250" />
              <mxPoint x="120" y="440" />
            </Array>
          </mxGeometry>
        </mxCell>
        <mxCell id="WZfhl5HpBi6mfvKsEDxa-38" value="Trả về dữ liệu" style="edgeLabel;resizable=0;html=1;;align=center;verticalAlign=middle;fontFamily=Helvetica;fontSize=11;fontColor=default;labelBackgroundColor=default;" connectable="0" vertex="1" parent="WZfhl5HpBi6mfvKsEDxa-37">
          <mxGeometry relative="1" as="geometry" />
        </mxCell>
        <mxCell id="WZfhl5HpBi6mfvKsEDxa-41" value="" style="endArrow=classic;html=1;rounded=0;strokeColor=default;align=center;verticalAlign=middle;fontFamily=Helvetica;fontSize=11;fontColor=default;labelBackgroundColor=default;exitX=0;exitY=1;exitDx=0;exitDy=0;entryX=0;entryY=0.5;entryDx=0;entryDy=0;" edge="1" parent="1" source="WZfhl5HpBi6mfvKsEDxa-4" target="WZfhl5HpBi6mfvKsEDxa-2">
          <mxGeometry relative="1" as="geometry">
            <mxPoint x="300" y="580" as="sourcePoint" />
            <mxPoint x="400" y="580" as="targetPoint" />
            <Array as="points">
              <mxPoint x="120" y="500" />
              <mxPoint x="120" y="590" />
            </Array>
          </mxGeometry>
        </mxCell>
        <mxCell id="WZfhl5HpBi6mfvKsEDxa-42" value="Trả về dữ liệu" style="edgeLabel;resizable=0;html=1;;align=center;verticalAlign=middle;fontFamily=Helvetica;fontSize=11;fontColor=default;labelBackgroundColor=default;" connectable="0" vertex="1" parent="WZfhl5HpBi6mfvKsEDxa-41">
          <mxGeometry relative="1" as="geometry" />
        </mxCell>
        <mxCell id="WZfhl5HpBi6mfvKsEDxa-45" value="" style="endArrow=classic;html=1;rounded=0;strokeColor=default;align=center;verticalAlign=middle;fontFamily=Helvetica;fontSize=11;fontColor=default;labelBackgroundColor=default;exitX=0.25;exitY=1;exitDx=0;exitDy=0;entryX=0;entryY=0.5;entryDx=0;entryDy=0;entryPerimeter=0;" edge="1" parent="1" source="WZfhl5HpBi6mfvKsEDxa-2" target="WZfhl5HpBi6mfvKsEDxa-6">
          <mxGeometry relative="1" as="geometry">
            <mxPoint x="300" y="580" as="sourcePoint" />
            <mxPoint x="160" y="660" as="targetPoint" />
            <Array as="points">
              <mxPoint x="160" y="650" />
              <mxPoint x="160" y="743" />
            </Array>
          </mxGeometry>
        </mxCell>
        <mxCell id="WZfhl5HpBi6mfvKsEDxa-46" value="Trả về dữ&lt;br&gt;liệu cho người dùng" style="edgeLabel;resizable=0;html=1;;align=center;verticalAlign=middle;fontFamily=Helvetica;fontSize=11;fontColor=default;labelBackgroundColor=default;" connectable="0" vertex="1" parent="WZfhl5HpBi6mfvKsEDxa-45">
          <mxGeometry relative="1" as="geometry" />
        </mxCell>
      </root>
    </mxGraphModel>
  </diagram>
</mxfile>
